solid OpenSCAD_Model
  facet normal -0.866016 -0.500016 -0
    outer loop
      vertex -27.405 -10.825 0
      vertex -23.077 -18.321 0
      vertex -27.405 -10.825 152
    endloop
  endfacet
  facet normal -0.866016 -0.500016 0
    outer loop
      vertex -27.405 -10.825 152
      vertex -23.077 -18.321 0
      vertex -23.077 -18.321 152
    endloop
  endfacet
  facet normal -0 0 -1
    outer loop
      vertex -27.405 -10.825 0
      vertex -4.327 29.146 0
      vertex -23.077 -18.321 0
    endloop
  endfacet
  facet normal 0 0 -1
    outer loop
      vertex -23.077 -18.321 0
      vertex -4.327 29.146 0
      vertex 4.327 29.146 0
    endloop
  endfacet
  facet normal 0 0 -1
    outer loop
      vertex -23.077 -18.321 0
      vertex 4.327 29.146 0
      vertex 27.405 -10.825 0
    endloop
  endfacet
  facet normal -0 0 -1
    outer loop
      vertex -23.077 -18.321 0
      vertex 27.405 -10.825 0
      vertex 23.077 -18.321 0
    endloop
  endfacet
  facet normal -0.866019 0.500012 0
    outer loop
      vertex -27.405 -10.825 0
      vertex -27.405 -10.825 152
      vertex -4.327 29.146 0
    endloop
  endfacet
  facet normal -0.866019 0.500012 0
    outer loop
      vertex -4.327 29.146 0
      vertex -27.405 -10.825 152
      vertex -4.327 29.146 152
    endloop
  endfacet
  facet normal 0 -0 1
    outer loop
      vertex -26.25 -10.825 152
      vertex -27.405 -10.825 152
      vertex -23.077 -18.321 152
    endloop
  endfacet
  facet normal 0 0 1
    outer loop
      vertex -26.25 -10.825 152
      vertex -3.75 28.146 152
      vertex -4.327 29.146 152
    endloop
  endfacet
  facet normal -0 0 1
    outer loop
      vertex 23.077 -18.321 152
      vertex -22.5 -17.321 152
      vertex -23.077 -18.321 152
    endloop
  endfacet
  facet normal 0 0 1
    outer loop
      vertex 3.75 28.146 152
      vertex 26.25 -10.825 152
      vertex 27.405 -10.825 152
    endloop
  endfacet
  facet normal 0 0 1
    outer loop
      vertex -4.327 29.146 152
      vertex -27.405 -10.825 152
      vertex -26.25 -10.825 152
    endloop
  endfacet
  facet normal -0 0 1
    outer loop
      vertex -22.5 -17.321 152
      vertex -26.25 -10.825 152
      vertex -23.077 -18.321 152
    endloop
  endfacet
  facet normal 0 -0 1
    outer loop
      vertex 4.327 29.146 152
      vertex 3.75 28.146 152
      vertex 27.405 -10.825 152
    endloop
  endfacet
  facet normal 0 0 1
    outer loop
      vertex 4.327 29.146 152
      vertex -4.327 29.146 152
      vertex 3.75 28.146 152
    endloop
  endfacet
  facet normal 0 0 1
    outer loop
      vertex 27.405 -10.825 152
      vertex 26.25 -10.825 152
      vertex 23.077 -18.321 152
    endloop
  endfacet
  facet normal 0 0 1
    outer loop
      vertex 26.25 -10.825 152
      vertex 22.5 -17.321 152
      vertex 23.077 -18.321 152
    endloop
  endfacet
  facet normal 0 -0 1
    outer loop
      vertex 22.5 -17.321 152
      vertex -22.5 -17.321 152
      vertex 23.077 -18.321 152
    endloop
  endfacet
  facet normal 0 0 1
    outer loop
      vertex -3.75 28.146 152
      vertex 3.75 28.146 152
      vertex -4.327 29.146 152
    endloop
  endfacet
  facet normal 0 -1 0
    outer loop
      vertex -23.077 -18.321 152
      vertex -23.077 -18.321 0
      vertex 23.077 -18.321 0
    endloop
  endfacet
  facet normal 0 -1 0
    outer loop
      vertex 23.077 -18.321 152
      vertex -23.077 -18.321 152
      vertex 23.077 -18.321 0
    endloop
  endfacet
  facet normal 0.866016 -0.500016 0
    outer loop
      vertex 23.077 -18.321 152
      vertex 23.077 -18.321 0
      vertex 27.405 -10.825 0
    endloop
  endfacet
  facet normal 0.866016 -0.500016 0
    outer loop
      vertex 27.405 -10.825 152
      vertex 23.077 -18.321 152
      vertex 27.405 -10.825 0
    endloop
  endfacet
  facet normal 0.866019 0.500012 0
    outer loop
      vertex 27.405 -10.825 0
      vertex 4.327 29.146 0
      vertex 4.327 29.146 152
    endloop
  endfacet
  facet normal 0.866019 0.500012 -0
    outer loop
      vertex 27.405 -10.825 152
      vertex 27.405 -10.825 0
      vertex 4.327 29.146 152
    endloop
  endfacet
  facet normal 0 1 0
    outer loop
      vertex -4.327 29.146 0
      vertex -4.327 29.146 152
      vertex 4.327 29.146 0
    endloop
  endfacet
  facet normal 0 1 0
    outer loop
      vertex 4.327 29.146 0
      vertex -4.327 29.146 152
      vertex 4.327 29.146 152
    endloop
  endfacet
  facet normal 0 1 0
    outer loop
      vertex -22.5 -17.321 2
      vertex -22.5 -17.321 152
      vertex 22.5 -17.321 2
    endloop
  endfacet
  facet normal 0 1 0
    outer loop
      vertex 22.5 -17.321 2
      vertex -22.5 -17.321 152
      vertex 22.5 -17.321 152
    endloop
  endfacet
  facet normal 0.866052 0.499953 0
    outer loop
      vertex -22.5 -17.321 2
      vertex -26.25 -10.825 2
      vertex -26.25 -10.825 152
    endloop
  endfacet
  facet normal 0.866052 0.499953 -0
    outer loop
      vertex -22.5 -17.321 152
      vertex -22.5 -17.321 2
      vertex -26.25 -10.825 152
    endloop
  endfacet
  facet normal -0.866052 0.499953 0
    outer loop
      vertex 22.5 -17.321 2
      vertex 22.5 -17.321 152
      vertex 26.25 -10.825 2
    endloop
  endfacet
  facet normal -0.866052 0.499953 0
    outer loop
      vertex 26.25 -10.825 2
      vertex 22.5 -17.321 152
      vertex 26.25 -10.825 152
    endloop
  endfacet
  facet normal -0.866025 -0.500001 -0
    outer loop
      vertex 3.75 28.146 2
      vertex 26.25 -10.825 2
      vertex 3.75 28.146 152
    endloop
  endfacet
  facet normal -0.866025 -0.500001 0
    outer loop
      vertex 3.75 28.146 152
      vertex 26.25 -10.825 2
      vertex 26.25 -10.825 152
    endloop
  endfacet
  facet normal 0 -1 0
    outer loop
      vertex -3.75 28.146 152
      vertex -3.75 28.146 2
      vertex 3.75 28.146 2
    endloop
  endfacet
  facet normal 0 -1 0
    outer loop
      vertex 3.75 28.146 152
      vertex -3.75 28.146 152
      vertex 3.75 28.146 2
    endloop
  endfacet
  facet normal 0.866025 -0.500001 0
    outer loop
      vertex -26.25 -10.825 152
      vertex -26.25 -10.825 2
      vertex -3.75 28.146 2
    endloop
  endfacet
  facet normal 0.866025 -0.500001 0
    outer loop
      vertex -3.75 28.146 152
      vertex -26.25 -10.825 152
      vertex -3.75 28.146 2
    endloop
  endfacet
  facet normal 0 0 1
    outer loop
      vertex -3.75 28.146 2
      vertex -26.25 -10.825 2
      vertex -22.5 -17.321 2
    endloop
  endfacet
  facet normal -0 0 1
    outer loop
      vertex 26.25 -10.825 2
      vertex -3.75 28.146 2
      vertex 22.5 -17.321 2
    endloop
  endfacet
  facet normal -0 0 1
    outer loop
      vertex 22.5 -17.321 2
      vertex -3.75 28.146 2
      vertex -22.5 -17.321 2
    endloop
  endfacet
  facet normal 0 -0 1
    outer loop
      vertex 3.75 28.146 2
      vertex -3.75 28.146 2
      vertex 26.25 -10.825 2
    endloop
  endfacet
endsolid OpenSCAD_Model
